<?xml version="1.0" standalone="no"?>
<!DOCTYPE svg PUBLIC "-//W3C//DTD SVG 20010904//EN"
 "http://www.w3.org/TR/2001/REC-SVG-20010904/DTD/svg10.dtd">
<svg version="1.0" xmlns="http://www.w3.org/2000/svg"
 width="130.000000pt" height="130.000000pt" viewBox="0 0 130.000000 130.000000"
 preserveAspectRatio="xMidYMid meet">
<metadata>
Created by potrace 1.14, written by Peter Selinger 2001-2017
</metadata>
<g transform="translate(0.000000,130.000000) scale(0.100000,-0.100000)"
fill="#000000" stroke="none">
<path d="M1030 1061 c-74 -15 -138 -68 -179 -149 -16 -32 -102 -229 -156 -357
l-16 -40 -24 55 c-12 30 -30 72 -39 93 -13 32 -18 36 -33 28 -10 -5 -28 -26
-39 -48 l-22 -38 62 -132 61 -132 23 52 c12 29 51 114 85 189 59 131 63 136
81 120 10 -9 26 -33 37 -52 l18 -35 1 63 c0 57 -2 63 -25 74 -31 14 -29 22 34
143 49 95 110 155 157 155 13 0 24 5 24 10 0 11 1 11 -50 1z"/>
<path d="M365 873 c32 -8 45 -23 75 -89 l28 -63 -34 -38 c-87 -95 -81 -266 13
-355 75 -72 229 -105 338 -73 107 31 177 131 174 249 -1 39 -2 38 -13 -19 -25
-120 -77 -180 -178 -206 -101 -24 -196 16 -245 105 -24 44 -28 62 -28 131 0
104 27 164 93 206 38 24 57 29 109 29 51 0 63 3 63 16 0 14 -12 16 -95 12
l-95 -4 -12 39 c-11 35 -10 41 7 53 16 12 3 14 -101 13 -65 -1 -110 -4 -99 -6z"/>
</g>
</svg>
